<?xml version="1.0" encoding="UTF-8" standalone="no"?>
<!DOCTYPE svg PUBLIC "-//W3C//DTD SVG 1.1//EN" "http://www.w3.org/Graphics/SVG/1.1/DTD/svg11.dtd">
<svg width="100%" height="100%" viewBox="0 0 602 196" version="1.1" xmlns="http://www.w3.org/2000/svg" xmlns:xlink="http://www.w3.org/1999/xlink" xml:space="preserve" xmlns:serif="http://www.serif.com/" style="fill-rule:evenodd;clip-rule:evenodd;stroke-linejoin:round;stroke-miterlimit:1.41421;">
    <g id="Layer-1" serif:id="Layer 1">
        <g transform="matrix(-0.385378,-0.922759,-0.922759,0.385378,75.2698,58.4704)">
            <path d="M-71.861,27.739L10.071,27.739L18.476,47.865L-63.456,47.865L-71.861,27.739Z" style="fill:white;fill-rule:nonzero;"/>
        </g>
        <g transform="matrix(72.9328,0,0,-72.9328,55.548,100.703)">
            <path d="M0.273,0.176L0,-0.477L0.299,-0.477L0.484,-0.035C0.587,0.199 0.623,0.201 0.737,0.201L1,0.201L0.999,0.475L0.737,0.477C0.572,0.477 0.399,0.475 0.273,0.176Z" style="fill:url(#_Linear1);fill-rule:nonzero;"/>
        </g>
        <g transform="matrix(1,0,0,1,164.24,40.5832)">
            <path d="M0,75.266C10.615,75.266 16.771,70.161 16.771,59.387C16.771,51.204 9.965,45.575 -0.809,45.575L-24.384,45.575L-24.384,75.266L0,75.266ZM-3.32,25.442C4.7,25.442 12.477,23.66 12.477,12.397C12.477,3.486 4.861,-1.051 -4.939,-1.051L-24.384,-1.051L-24.384,25.442L-3.32,25.442ZM-44.963,-19.604L-5.264,-19.604C12.152,-19.604 31.354,-11.663 31.354,11.264C31.354,21.713 25.116,30.14 18.634,33.623C29.085,37.755 37.024,50.232 37.024,61.655C37.024,82.96 19.12,94.87 -0.323,94.87L-44.963,94.87L-44.963,-19.604Z" style="fill:white;fill-rule:nonzero;"/>
        </g>
        <g transform="matrix(1,0,0,1,219.149,133.754)">
            <path d="M0,-79.234L19.28,-79.234L19.28,-65.623C22.765,-75.425 31.92,-80.934 40.992,-80.934C46.34,-80.934 51.931,-79.073 55.819,-75.102L46.827,-58.899C44.151,-60.682 41.155,-61.654 37.995,-61.654C28.76,-61.654 19.12,-53.067 19.12,-32.488L19.12,1.7L0,1.7L0,-79.234Z" style="fill:white;fill-rule:nonzero;"/>
        </g>
        <g transform="matrix(1,0,0,1,0,-38.79)">
            <path d="M285.651,93.31L305.419,93.31L305.419,174.244L285.651,174.244L285.651,93.31ZM285.164,59.769L305.903,59.769L305.903,77.998L285.164,77.998L285.164,59.769Z" style="fill:white;fill-rule:nonzero;"/>
        </g>
        <g transform="matrix(1,0,0,1,381.805,63.1058)">
            <path d="M0,31.841C0,18.232 -5.993,7.617 -19.604,7.617C-33.216,7.617 -39.372,18.393 -39.372,31.841C-39.372,45.451 -33.216,56.064 -19.604,56.064C-5.993,56.064 0,45.612 0,31.841M-59.464,31.841C-59.464,9.482 -47.148,-10.286 -24.708,-10.286C-16.284,-10.286 -7.291,-7.45 -1.701,-0.485L-1.701,-42.127L18.391,-42.127L18.391,72.348L0,72.348L-0.89,63.193C-6.48,70.889 -15.473,73.968 -24.384,73.968C-47.148,73.968 -59.464,54.445 -59.464,31.841" style="fill:white;fill-rule:nonzero;"/>
        </g>
        <g transform="matrix(1,0,0,1,440.929,138.451)">
            <path d="M0,-55.737C0,-47.473 4.698,-41.48 13.448,-41.48C22.277,-41.48 26.733,-47.473 26.733,-55.737C26.733,-64.245 22.117,-70.32 13.448,-70.32C4.858,-70.32 0,-64.245 0,-55.737M32.89,10.451C32.89,4.294 26.572,2.835 13.124,1.458C8.911,1.052 3.887,0.647 -1.053,-0.325L-5.43,6.967L-4.942,9.155C-2.594,17.255 5.833,20.091 15.634,20.091C26.085,20.091 32.89,16.931 32.89,10.451M51.604,8.262C51.604,26.572 35.889,35.322 15.797,35.322C-9.722,35.322 -23.009,23.09 -23.009,6.482C-23.009,4.617 -22.846,3.807 -22.686,2.998L-13.287,-4.941C-17.985,-8.101 -21.227,-12.962 -21.227,-20.74C-21.227,-27.869 -18.472,-33.053 -13.692,-37.267C-17.906,-42.37 -20.415,-48.771 -20.415,-55.9C-20.415,-73.479 -5.105,-85.632 12.801,-85.632C19.848,-85.632 26.491,-83.77 31.918,-80.447L44.313,-91.059L54.604,-78.504L42.856,-69.024C45.124,-64.974 46.338,-60.195 46.338,-54.928C46.338,-36.861 31.188,-25.357 13.448,-25.357C7.857,-25.357 2.673,-26.492 -1.945,-28.516C-3.565,-27.464 -4.295,-26.086 -4.295,-24.224C-4.295,-17.581 5.67,-17.418 20.09,-15.634C35.402,-13.61 51.604,-10.289 51.604,8.262" style="fill:white;fill-rule:nonzero;"/>
        </g>
        <g transform="matrix(1,0,0,1,557.98,102.722)">
            <path d="M0,-15.552C0,-17.335 -0.163,-19.036 -0.65,-20.657C-2.676,-29.002 -9.643,-33.295 -18.23,-33.295C-29.896,-33.295 -34.999,-25.68 -36.863,-15.552L0,-15.552ZM-57.764,-7.452C-57.764,-28.516 -45.45,-49.903 -18.067,-49.903C10.288,-49.903 19.441,-27.139 19.441,-9.072C19.441,-5.751 19.117,-2.428 18.712,-1.295L-36.863,-1.295C-35.162,9.319 -29.329,16.447 -16.608,16.447C-9.319,16.447 -2.836,14.179 2.833,7.86L16.444,19.77C7.613,29.571 -3.16,34.351 -16.771,34.351C-44.64,34.351 -57.764,14.341 -57.764,-7.452" style="fill:white;fill-rule:nonzero;"/>
        </g>
    </g>
    <defs>
        <linearGradient id="_Linear1" x1="0" y1="0" x2="1" y2="0" gradientUnits="userSpaceOnUse" gradientTransform="matrix(1,0,0,-1,0,-5.10059e-07)"><stop offset="0" style="stop-color:rgb(0,132,193);stop-opacity:1"/><stop offset="1" style="stop-color:rgb(128,187,143);stop-opacity:1"/></linearGradient>
    </defs>
</svg>
